<svg xmlns="http://www.w3.org/2000/svg" width="48" height="48" viewBox="0 0 48 48">
  <path id="Path_35" data-name="Path 35" d="M12.653,23.773A40.4,40.4,0,0,0,30.227,41.347l5.867-5.867a2.651,2.651,0,0,1,2.72-.64,30.419,30.419,0,0,0,9.52,1.52A2.675,2.675,0,0,1,51,39.027v9.307A2.675,2.675,0,0,1,48.333,51,45.329,45.329,0,0,1,3,5.667,2.675,2.675,0,0,1,5.667,3H15a2.675,2.675,0,0,1,2.667,2.667,30.294,30.294,0,0,0,1.52,9.52,2.676,2.676,0,0,1-.667,2.72Z" transform="translate(-3 -3)" fill="#8f9ea5"/>
</svg>
