<svg xmlns="http://www.w3.org/2000/svg" width="49.266" height="48.05" viewBox="0 0 49.266 48.05">
  <g id="Group_1" data-name="Group 1" transform="translate(-290.221 -58.431)">
    <path id="Path_2" data-name="Path 2" d="M314.854,58.431a24.636,24.636,0,0,0-7.788,48.008c1.231.228,1.683-.535,1.683-1.185,0-.587-.023-2.528-.033-4.586-6.853,1.491-8.3-2.906-8.3-2.906-1.121-2.847-2.735-3.6-2.735-3.6-2.235-1.529.168-1.5.168-1.5a5.178,5.178,0,0,1,3.776,2.539c2.2,3.765,5.763,2.677,7.168,2.048a5.247,5.247,0,0,1,1.564-3.294c-5.471-.622-11.223-2.735-11.223-12.174a9.533,9.533,0,0,1,2.538-6.612,8.852,8.852,0,0,1,.239-6.519s2.069-.662,6.776,2.525a23.355,23.355,0,0,1,12.337,0c4.7-3.187,6.767-2.525,6.767-2.525a8.841,8.841,0,0,1,.241,6.519,9.514,9.514,0,0,1,2.535,6.612c0,9.462-5.763,11.544-11.248,12.154a5.889,5.889,0,0,1,1.671,4.562c0,3.3-.029,5.949-.029,6.76,0,.656.443,1.424,1.692,1.182a24.637,24.637,0,0,0-7.8-48Z" fill="#8f9ea5" fill-rule="evenodd"/>
    <path id="Path_3" data-name="Path 3" d="M312.135,144.528c-.054.123-.247.159-.422.075s-.279-.248-.221-.37.246-.161.424-.077.281.249.219.372Zm-.3-.224" transform="translate(-12.585 -50.73)" fill="#8f9ea5"/>
    <path id="Path_4" data-name="Path 4" d="M314.6,146.872c-.117.109-.347.058-.5-.114a.377.377,0,0,1-.072-.512c.121-.109.344-.058.505.114s.193.4.07.512Zm-.235-.252" transform="translate(-14.05 -51.96)" fill="#8f9ea5"/>
    <path id="Path_5" data-name="Path 5" d="M316.958,150.117c-.151.105-.4.007-.55-.212s-.151-.482,0-.587.4-.01.551.207.151.486,0,.593Zm0,0" transform="translate(-15.438 -53.787)" fill="#8f9ea5"/>
    <path id="Path_6" data-name="Path 6" d="M319.955,153.521c-.135.149-.423.109-.633-.095a.474.474,0,0,1-.14-.629c.137-.149.426-.107.638.095s.279.482.135.629Zm0,0" transform="translate(-17.105 -55.82)" fill="#8f9ea5"/>
    <path id="Path_7" data-name="Path 7" d="M324.186,155.871c-.06.193-.337.28-.616.2s-.461-.31-.4-.5.336-.286.617-.2.461.308.4.5Zm0,0" transform="translate(-19.5 -57.374)" fill="#8f9ea5"/>
    <path id="Path_8" data-name="Path 8" d="M329.088,156.491c.007.2-.23.372-.523.375s-.533-.158-.536-.358.231-.372.526-.377.533.158.533.359Zm0,0" transform="translate(-22.385 -57.847)" fill="#8f9ea5"/>
    <path id="Path_9" data-name="Path 9" d="M333.7,155.822c.035.2-.168.4-.459.456s-.551-.07-.587-.266.172-.407.457-.459.552.069.589.27Zm0,0" transform="translate(-25.121 -57.497)" fill="#8f9ea5"/>
  </g>
</svg>
