<svg xmlns="http://www.w3.org/2000/svg" width="47.438" height="48" viewBox="0 0 47.438 48">
  <g id="Group_3" data-name="Group 3" transform="translate(-633.225 -217.004)">
    <path id="Path_2" data-name="Path 2" d="M680.663,260.205a4.79,4.79,0,0,1-4.783,4.8H638.008a4.79,4.79,0,0,1-4.783-4.8V221.8a4.79,4.79,0,0,1,4.783-4.8h37.873a4.79,4.79,0,0,1,4.783,4.8Z" transform="translate(0 0)" fill="#8f9ea5"/>
    <g id="Group_2" data-name="Group 2" transform="translate(641.137 224.85)">
      <path id="Path_9" data-name="Path 9" d="M671.763,251.332a3.345,3.345,0,0,1-3.62,3.356,3.363,3.363,0,1,1,3.62-3.356Zm-6.932,27.6V257.337h6.711v21.592Z" transform="translate(-664.654 -247.976)" fill="#fff"/>
      <path id="Path_10" data-name="Path 10" d="M701.807,285.938c0-2.693-.088-4.945-.176-6.888h5.828l.309,3h.132a7.754,7.754,0,0,1,6.668-3.488c4.415,0,7.727,2.959,7.727,9.317v12.761h-6.711V288.676c0-2.782-.972-4.68-3.4-4.68a3.685,3.685,0,0,0-3.444,2.516,4.832,4.832,0,0,0-.221,1.678v12.452h-6.711Z" transform="translate(-690.902 -269.689)" fill="#fff"/>
    </g>
  </g>
</svg>
